<svg width="174.353515625" height="74.4140625" viewBox="0 0 174.353515625 76.4140625" xmlns="http://www.w3.org/2000/svg" style="vertical-align: text-top; ">
  <g id="svgGroup" stroke-linecap="round" stroke="#000" fill="#005792" style="fill:#005792; fill-opacity:0;
    stroke:#333333;
    stroke-width:2px;"><path d="M30.06 48.60L30.06 48.60Q30.06 54.26 25.96 57.42Q21.86 60.59 14.82 60.59L14.82 60.59Q7.21 60.59 3.11 58.62L3.11 58.62L3.11 53.82Q5.74 54.93 8.85 55.58Q11.95 56.22 15 56.22L15 56.22Q19.98 56.22 22.50 54.33Q25.02 52.44 25.02 49.07L25.02 49.07Q25.02 46.85 24.13 45.42Q23.23 44.00 21.14 42.80Q19.04 41.60 14.77 40.08L14.77 40.08Q8.79 37.94 6.23 35.01Q3.66 32.08 3.66 27.36L3.66 27.36Q3.66 22.41 7.38 19.48Q11.10 16.55 17.23 16.55L17.23 16.55Q23.61 16.55 28.97 18.90L28.97 18.90L27.42 23.23Q22.12 21.01 17.11 21.01L17.11 21.01Q13.15 21.01 10.93 22.71Q8.70 24.40 8.70 27.42L8.70 27.42Q8.70 29.65 9.52 31.07Q10.34 32.49 12.29 33.68Q14.24 34.86 18.25 36.30L18.25 36.30Q24.99 38.70 27.52 41.46Q30.06 44.21 30.06 48.60Z" style="stroke-dasharray: 189, 191; stroke-dashoffset: 190; animation: 300ms linear 0ms 1 normal forwards running STAdraw;"></path><path d="M42.95 27.89L42.95 60L38.09 60L38.09 27.89L42.95 27.89ZM37.68 19.19L37.68 19.19Q37.68 17.52 38.50 16.74Q39.32 15.97 40.55 15.97L40.55 15.97Q41.72 15.97 42.57 16.76Q43.42 17.55 43.42 19.19L43.42 19.19Q43.42 20.83 42.57 21.64Q41.72 22.44 40.55 22.44L40.55 22.44Q39.32 22.44 38.50 21.64Q37.68 20.83 37.68 19.19Z" style="stroke-dasharray: 93, 95; stroke-dashoffset: 94; animation: 300ms linear 150ms 1 normal forwards running STAdraw;"></path><path d="M68.44 27.89L79.54 27.89L79.54 30.97L73.59 31.67Q74.41 32.70 75.06 34.35Q75.70 36.01 75.70 38.09L75.70 38.09Q75.70 42.80 72.48 45.62Q69.26 48.43 63.63 48.43L63.63 48.43Q62.20 48.43 60.94 48.19L60.94 48.19Q57.83 49.83 57.83 52.32L57.83 52.32Q57.83 53.64 58.92 54.27Q60 54.90 62.64 54.90L62.64 54.90L68.32 54.90Q73.54 54.90 76.33 57.10Q79.13 59.30 79.13 63.49L79.13 63.49Q79.13 68.82 74.85 71.62Q70.58 74.41 62.37 74.41L62.37 74.41Q56.07 74.41 52.66 72.07Q49.25 69.73 49.25 65.45L49.25 65.45Q49.25 62.52 51.12 60.38Q53.00 58.24 56.40 57.48L56.40 57.48Q55.17 56.92 54.33 55.75Q53.50 54.58 53.50 53.03L53.50 53.03Q53.50 51.27 54.43 49.95Q55.37 48.63 57.39 47.40L57.39 47.40Q54.90 46.38 53.33 43.92Q51.77 41.46 51.77 38.29L51.77 38.29Q51.77 33.02 54.93 30.16Q58.10 27.30 63.90 27.30L63.90 27.30Q66.42 27.30 68.44 27.89L68.44 27.89ZM53.94 65.39L53.94 65.39Q53.94 68.00 56.13 69.35Q58.33 70.69 62.43 70.69L62.43 70.69Q68.55 70.69 71.50 68.86Q74.44 67.03 74.44 63.90L74.44 63.90Q74.44 61.29 72.83 60.28Q71.22 59.27 66.77 59.27L66.77 59.27L60.94 59.27Q57.63 59.27 55.78 60.85Q53.94 62.43 53.94 65.39ZM56.57 38.17L56.57 38.17Q56.57 41.54 58.48 43.27Q60.38 45 63.78 45L63.78 45Q70.90 45 70.90 38.09L70.90 38.09Q70.90 30.85 63.69 30.85L63.69 30.85Q60.26 30.85 58.42 32.70Q56.57 34.54 56.57 38.17Z" style="stroke-dasharray: 279, 281; stroke-dashoffset: 280; animation: 300ms linear 300ms 1 normal forwards running STAdraw;"></path><path d="M112.97 60L108.11 60L108.11 39.23Q108.11 35.30 106.32 33.37Q104.53 31.44 100.72 31.44L100.72 31.44Q95.68 31.44 93.34 34.16Q91.00 36.88 91.00 43.15L91.00 43.15L91.00 60L86.13 60L86.13 27.89L90.09 27.89L90.88 32.29L91.11 32.29Q92.61 29.91 95.30 28.61Q98.00 27.30 101.31 27.30L101.31 27.30Q107.11 27.30 110.04 30.10Q112.97 32.90 112.97 39.05L112.97 39.05L112.97 60Z" style="stroke-dasharray: 169, 171; stroke-dashoffset: 170; animation: 300ms linear 450ms 1 normal forwards running STAdraw;"></path><path d="M151.05 17.17L156.04 17.17L156.04 44.88Q156.04 52.21 151.61 56.40Q147.19 60.59 139.45 60.59L139.45 60.59Q131.72 60.59 127.49 56.37Q123.25 52.15 123.25 44.77L123.25 44.77L123.25 17.17L128.23 17.17L128.23 45.12Q128.23 50.48 131.16 53.35Q134.09 56.22 139.78 56.22L139.78 56.22Q145.20 56.22 148.13 53.33Q151.05 50.45 151.05 45.06L151.05 45.06L151.05 17.17Z" style="stroke-dasharray: 209, 211; stroke-dashoffset: 210; animation: 300ms linear 600ms 1 normal forwards running STAdraw;"></path><path d="M172.35 60L167.37 60L167.37 17.17L172.35 17.17L172.35 60Z" style="stroke-dasharray: 95, 97; stroke-dashoffset: 96; animation: 300ms linear 750ms 1 normal forwards running STAdraw;"></path></g>
<style>@keyframes STAdraw{to{stroke-dashoffset:0;fill-opacity:1;}}</style></svg>